PathFileType	4	(X/Y/Z)	Patient4_TMGait_0pt4_02_left_04.trc.trc
DataRate	CameraRate	NumFrames	NumMarkers	Units	OrigDataRate	OrigDataStartFrame	OrigNumFrames
72.916666666667	72.916666666667	5	33	mm	72.916666666667	106	       141
Frame#	Time	Sacral			L.Shoulder			Chest			R.Shoulder			Neck			R.ASIS			L.ASIS			R.Thigh.Superior			R.Thigh.Lateral			R.Thigh.Inferior			R.Patella			L.Thigh.Superior			L.Thigh.Lateral			L.Thigh.Inferior			L.Patella			L.Shank.Superior			L.Shank.Lateral			L.Shank.Inferior			R.Shank.Superior			R.Shank.Lateral			R.Shank.Inferior			R.Heel			R.Midfoot.Superior			R.Midfoot.Lateral			R.Toe			L.Heel			L.Midfoot.Lateral			L.Midfoot.Superior			L.Toe			L.Elbow			L.Wrist			R.Elbow			R.Wrist			
		X1	Y1	Z1	X2	Y2	Z2	X3	Y3	Z3	X4	Y4	Z4	X5	Y5	Z5	X6	Y6	Z6	X7	Y7	Z7	X8	Y8	Z8	X9	Y9	Z9	X10	Y10	Z10	X11	Y11	Z11	X12	Y12	Z12	X13	Y13	Z13	X14	Y14	Z14	X15	Y15	Z15	X16	Y16	Z16	X17	Y17	Z17	X18	Y18	Z18	X19	Y19	Z19	X20	Y20	Z20	X21	Y21	Z21	X22	Y22	Z22	X23	Y23	Z23	X24	Y24	Z24	X25	Y25	Z25	X26	Y26	Z26	X27	Y27	Z27	X28	Y28	Z28	X29	Y29	Z29	X30	Y30	Z30	X31	Y31	Z31	X32	Y32	Z32	X33	Y33	Z33	

106	6.710000000000	852.753017417826	1006.602617374131	543.121083057891	1014.481632932254	1436.779372642995	344.735535028429	1132.897426977514	1368.891375708801	495.076392100966	1068.047268015874	1442.751903379303	676.359941562050	1012.078351402513	1498.338458503735	500.622038345703	1092.010144952150	943.862324328775	635.941181675514	1050.365426933908	970.077327689260	364.503082484254	1119.613277360546	738.719384144815	602.549547059453	1036.788815673274	632.324878870122	668.758072384953	1105.600985919433	577.442696812449	583.897801225967	1101.013807443920	490.446938105618	589.523910244971	1137.582331101605	790.924061211719	380.529685432812	1090.618277399650	663.294810099545	301.773118445219	1200.761460113835	605.340426822823	350.417104950042	1221.352913457885	525.300041705159	340.622412992172	1176.628751605184	450.423864530551	333.684040026866	1057.612499189886	363.321968468112	288.754768383953	1096.584344114343	236.123057965714	337.029775078059	1070.525491276072	401.997994154326	597.520716214971	998.834799193893	300.530519396557	663.061868686580	1032.249912886953	204.563588065021	595.456239282528	892.844385769032	42.997160132427	570.161717233413	1064.607914842863	96.654675983517	601.399925610411	977.997145253677	37.105982728497	642.843833711342	1186.096454632010	43.245878753412	624.932762272752	947.825347741420	104.893817832404	380.416582035414	1011.606573411428	87.313968652476	294.607211014340	1106.895631719599	132.957090807302	311.746298878308	1217.557278912861	60.015986870373	272.446079901859	949.390936611794	1091.686117499885	225.794790379525	1038.560356783133	846.340849247749	188.012084475589	1115.743791171688	1121.395232625076	837.088847218368	1357.595315638158	1058.434303931801	789.001983234783	
107	6.723714285714	852.018716741934	1007.353943345029	544.712176712657	1013.124515219411	1437.259241075998	346.071546480776	1132.873795161901	1368.740421918844	495.054919536078	1070.135495848512	1442.602644394382	677.076682018745	1012.358122802502	1498.440692677588	502.000636324103	1091.474510211165	943.656051895465	635.539083320166	1048.083388781252	970.543395480937	364.383059451417	1116.429696500943	738.110613597624	601.850952849298	1033.250703059852	632.368943192247	668.934375423930	1100.774487359995	576.879264226619	583.696003980628	1095.459632966904	490.307776757291	589.529633413081	1134.594121471730	791.311119653687	380.666773731556	1088.060426460118	663.773661458512	301.623993252906	1197.445037507336	605.675303414639	351.624224654268	1219.392988761967	527.884707838287	341.550915634950	1178.962116699817	452.815895181924	333.752334805797	1066.752731215996	357.999849474670	287.518198783775	1114.569135351818	233.281127392113	335.217038331841	1065.051565109894	401.939341956295	597.625104862693	993.422269580704	300.485060753169	663.261194006780	1026.697081032379	204.528006127646	595.536203777199	887.281998315198	42.981778058310	570.193238123778	1059.049994165238	96.571961697393	601.374694144822	972.470091727776	37.087168248267	642.887912949374	1180.557288270107	43.199928567992	624.943404719006	975.565103568471	91.450924794235	377.502452497992	1040.808536031173	78.747788491895	291.844428868647	1132.683495117743	130.835450731419	309.411200254341	1248.366374162041	66.004182269824	270.338358815512	943.884538785925	1092.977846621794	227.421253544912	1027.158005223934	845.882819984939	188.154669803547	1126.695487506930	1122.096677255075	835.730880884364	1370.052293009745	1071.003624349185	783.106570792749	
108	6.737428571429	851.278228070310	1007.967047777245	546.031824674831	1011.968339635252	1437.597712635249	347.183846672483	1132.892155697481	1368.427849385527	494.915085778716	1072.108101146195	1442.297001425153	677.600029867880	1012.718052624912	1498.390646258550	503.231196407063	1090.915702694176	943.382051441520	635.048169920450	1045.948137208739	970.753916098402	364.145176952473	1113.355625178204	737.481669070834	601.188307788334	1029.834537071132	632.369320772251	669.095249954374	1096.093096186696	576.299421109498	583.516983713615	1090.067332505046	490.131865923003	589.565004526221	1131.360161539313	791.063861376106	380.836453236635	1085.159833528674	663.824364699587	301.327494909173	1193.528736980888	605.298762835028	353.022051883722	1216.744219069585	529.915465176549	342.692424759070	1180.604975175439	454.979307420479	333.932509224161	1075.733212298268	352.931631569598	286.133941479421	1132.015032074459	231.254579310688	333.488184062548	1059.694980459636	401.850193163972	597.730213797997	988.102913415859	300.420141557228	663.455933796124	1021.200018996339	204.476907711007	595.612850110130	881.720616691252	42.967962458223	570.224726260716	1053.490397925980	96.480223228421	601.338781928411	966.944840039538	37.066277774178	642.930655304374	1175.024118929584	43.146698643815	624.959455236255	1003.138011656162	79.731262335547	374.419700017703	1069.829332945956	71.625956637369	289.167494034209	1157.964688608098	129.794521987453	307.317362541687	1278.163231205734	72.956723301107	269.032045617505	938.696777585468	1094.146493934493	228.857208402691	1016.041000870146	845.441499616950	188.302632843975	1137.380438325392	1122.717890435174	833.802981436132	1381.613424017461	1083.318934637231	776.826119675524	
109	6.751142857143	850.538088932946	1008.444136722074	547.073944084624	1011.002554608982	1437.812529745141	348.050876528008	1132.933964385432	1367.983453642195	494.651440991335	1073.924751494691	1441.863640017954	677.918009202021	1013.128503332095	1498.214344797554	504.282289734012	1090.356358253493	943.059300254770	634.491458976893	1043.986649703967	970.731177766865	363.802192538011	1110.449817290648	736.839373850376	600.594323933397	1026.552009854854	632.333543071821	669.231895988801	1091.586368397534	575.707766857461	583.362668061140	1084.857845953087	489.917209795257	589.610794282189	1127.971249117274	790.280596051710	381.040395701698	1082.028735250370	663.517848473030	300.895813868234	1189.223650286598	604.359624325836	354.484625424486	1213.605276373279	531.458146629804	343.960876289886	1181.651354696538	456.933937113685	334.187361931550	1084.392946632062	348.308451122236	284.689187901176	1148.562268163606	230.122440532693	331.925009197490	1054.468305180006	401.732947399135	597.823374570260	982.883368322464	300.346178097710	663.640532930045	1015.765790009270	204.415573713597	595.684088837408	876.163137488038	42.957606863024	570.258751852547	1047.930718442659	96.385358274077	601.297047802944	961.420659592245	37.043954918776	642.971935070357	1169.496378700403	43.088717094760	624.980101231732	1029.863470853834	70.029293897313	371.380152667424	1097.965697946328	66.093803061642	286.754011438254	1182.178704342868	129.844245396561	305.562639101187	1306.314477288149	80.647554010829	268.575188982007	933.830883217305	1095.198687583140	230.090756570671	1005.256590462016	845.030012357647	188.439877259062	1147.730931532304	1123.271649173297	831.310286899022	1392.255510678784	1095.281557402027	770.235018527395	
110	6.764857142857	849.815328323988	1008.792096620222	547.838467492600	1010.207355998253	1437.926189419183	348.657154317949	1132.979425966163	1367.445802004870	494.259647792794	1075.547900732082	1441.339551553457	678.021092577029	1013.551391314072	1497.944753334014	505.115864486721	1089.822833443362	942.709480885592	633.885846825833	1042.221558118760	970.510154771982	363.362738209114	1107.755240432933	736.190671308790	600.085920033830	1023.403538220694	632.273660760090	669.332220773969	1087.268413505491	575.109858223541	583.230445933875	1079.840673497681	489.665983767177	589.648731827130	1124.539127001220	789.087239311252	381.259262815500	1078.781936918460	662.922588509148	300.364507695150	1184.760854724584	603.019889267756	355.873180136493	1210.185456502682	532.579712012602	345.258135047974	1182.202458111986	458.679029740557	334.476523973845	1092.529598691768	344.251642170874	283.297125081083	1163.853173732780	229.846636174475	330.599910583021	1049.372253703861	401.593715672362	597.893037976091	977.759236098217	300.277147935424	663.810014311230	1010.394781224904	204.351396179600	595.749294036899	870.610948015427	42.953393172919	570.297134113295	1042.373632510528	96.293774257436	601.255600085402	955.896558384278	37.020959856415	643.011674920385	1163.972688561725	43.027991405470	625.003968177415	1055.040094878653	62.445921094068	368.614351652980	1124.476761008818	62.127964558571	284.769062799268	1204.758299385734	130.853015416526	304.214337726641	1332.212483167450	88.719278277926	268.915519296404	929.287999255788	1096.147901008623	231.109544279913	994.856620840058	844.663546772559	188.550323071443	1157.670431920365	1123.777342358723	828.264994563242	1401.963497556088	1106.799412115542	763.406655895494	
